<?xml version="1.0" encoding="iso-8859-1"?>
<!-- Generator: Adobe Illustrator 19.0.0, SVG Export Plug-In . SVG Version: 6.00 Build 0)  -->
<svg version="1.1" id="Capa_1" xmlns="http://www.w3.org/2000/svg" xmlns:xlink="http://www.w3.org/1999/xlink" x="0px" y="0px"
	 viewBox="0 0 341.6 341.6" style="enable-background:new 0 0 341.6 341.6;" xml:space="preserve">
<g>
	<path style="fill:#ffffff;" d="M265.6,188.8l-60,41.2l-59.2,40.8c-1.6,1.2-3.6,2.4-6,3.2s-4.8,1.2-7.2,1.2c-6,0-11.2-2.4-15.2-6.4
		s-6.4-9.2-6.4-15.2v-82.8V87.2c0-0.4,0-1.2,0-1.6c0-1.6,0.4-3.2,0.8-4.8c0.8-2,1.6-4,2.8-5.6c3.2-4.8,8.4-8,13.6-8.8
		c5.2-0.8,11.2,0,16,3.6l60.4,41.6l60,41.6c1.2,0.8,2,1.6,3.2,2.4c0.8,0.8,1.2,1.6,2,2.4c0.4,0.4,0.8,1.2,1.2,2
		c2.8,4.4,3.6,10,2.8,14.8c-0.8,4.8-3.6,9.6-8,12.8C266.4,188,266,188.4,265.6,188.8z M277.2,277.2c58.8-58.8,58.8-154,0-212.4
		C218.4,6,123.2,6,64.8,64.8C6,123.6,6,218.8,64.8,277.2C123.2,335.6,218.4,335.6,277.2,277.2z"/>
	<path style="fill:#00efd1;" d="M194,213.2l60.4-41.6l0,0l0.4-0.4v-0.4l0,0l0,0l0,0l0,0L194,128.4l-60.4-41.6h-0.4
		c0,0-0.4,0-0.4,0.4l0,0l0,0l0,0V88v82.8v83.6c0,0,0,0.4,0.4,0.4l0.4,0.4h0.4l0,0l0.8-0.4L194,213.2z"/>
</g>
<g>
	<path style="fill:#00efd1;" d="M291.6,50L291.6,50C258.4,16.8,214.4,0,170.8,0S83.2,16.8,50,50l0,0l0,0C16.8,83.2,0,127.2,0,170.8
		s16.8,87.6,50,120.8l0,0l0,0c33.2,33.2,77.2,50,120.8,50s87.6-16.8,120.8-50l0,0l0,0c33.2-33.2,50-77.2,50-120.8
		S324.8,83.2,291.6,50L291.6,50z M277.2,277.2L277.2,277.2L277.2,277.2c-29.2,29.2-68,44-106.4,44s-76.8-14.8-106.4-44l0,0l0,0
		c-29.2-29.2-44-68-44-106.4S35.2,94,64.4,64.4l0,0l0,0c29.2-29.2,68-44,106.4-44s76.8,14.8,106.4,44l0,0l0,0
		c29.2,29.2,44,68,44,106.4S306.4,247.6,277.2,277.2z"/>
	<path style="fill:#0000ff;" d="M270.8,158c-0.8-0.8-1.2-1.6-2-2.4c-0.8-0.8-2-2-3.2-2.4l0,0l-60-41.6L145.2,70
		c-4.8-3.2-10.4-4.4-16-3.6c-5.2,0.8-10.4,4-13.6,8.8c-1.2,2-2,3.6-2.8,5.6c-0.4,1.6-0.8,3.2-0.8,4.8c0,0.4,0,1.2,0,1.6v83.6v83.6
		c0,6,2.4,11.2,6.4,15.2s9.2,6.4,15.2,6.4c2.4,0,4.8-0.4,7.2-1.2c2-0.8,4-2,6-3.2l59.6-41.2l59.6-41.2c0.4-0.4,1.2-0.8,1.6-1.2
		c4.4-3.2,6.8-8,8-12.8c0.8-4.8,0-10.4-2.8-14.8C271.6,159.2,271.2,158.4,270.8,158z M254.4,171.2L254.4,171.2l-60.4,42l-59.6,41.2
		c-0.4,0-0.4,0.4-0.8,0.4l0,0c0,0,0,0-0.4,0c0,0-0.4,0-0.4-0.4s-0.4-0.4-0.4-0.4v-83.2V88c0-0.4,0-0.4,0-0.8l0,0l0,0l0,0l0.4-0.4
		h0.4l60.4,41.6L254,170l0,0l0,0l0,0l0,0l0,0v0.4C254.8,171.2,254.8,171.2,254.4,171.2z"/>
</g>
<g>
</g>
<g>
</g>
<g>
</g>
<g>
</g>
<g>
</g>
<g>
</g>
<g>
</g>
<g>
</g>
<g>
</g>
<g>
</g>
<g>
</g>
<g>
</g>
<g>
</g>
<g>
</g>
<g>
</g>
</svg>
