<svg id="Layer_1" enable-background="new 0 0 56.689 56.689" height="512" viewBox="0 0 56.689 56.689" width="512" xmlns="http://www.w3.org/2000/svg"><g><path fill="#00efd1" d="m12.44 20.948c0-.592.17-1.5.977-2.464l12.043-14.39c.826-.99 2.015-1.558 3.258-1.558 1.244 0 2.432.567 3.26 1.558l12.039 14.39c.806.963.975 1.871.975 2.464 0 1.606-1.248 3.232-3.637 3.232h-9.139v25.746c0 1.93-1.57 3.5-3.5 3.5s-3.5-1.57-3.5-3.5v-25.746h-9.139c-2.387 0-3.637-1.626-3.637-3.232zm30.55 0c0-.261-.088-.678-.508-1.181l-12.04-14.39c-.446-.534-1.075-.841-1.726-.841-.648 0-1.277.307-1.725.841l-12.043 14.39c-.42.504-.51.92-.51 1.181 0 .568.43 1.232 1.637 1.232h11.139v27.746c0 .827.674 1.5 1.5 1.5.828 0 1.5-.673 1.5-1.5v-27.746h11.139c1.21 0 1.637-.664 1.637-1.232z"/></g></svg>